<?xml version="1.0" encoding="UTF-8"?>
<svg width="224px" height="224px" viewBox="0 0 224 224" version="1.1" xmlns="http://www.w3.org/2000/svg" xmlns:xlink="http://www.w3.org/1999/xlink">
    <!-- Generator: Sketch 55.1 (78136) - https://sketchapp.com -->
    <title>Group 7</title>
    <desc>Created with Sketch.</desc>
    <g id="Error-pages-" stroke="none" stroke-width="1" fill="none" fill-rule="evenodd">
        <g id="Not-found" transform="translate(-608.000000, -192.000000)">
            <g id="Group-2" transform="translate(397.000000, 192.000000)">
                <g id="Group-7" transform="translate(211.000000, 0.000000)">
                    <circle id="Oval" fill="#4C5AA5" opacity="0.0513625372" cx="112" cy="112" r="112"></circle>
                    <g id="Initigriti-error-logo-3" transform="translate(21.000000, 41.000000)">
                        <path d="M125.538272,5.07654321 L122.061728,0 C113.794445,3.34690384 106.826073,9.26932774 102.190123,16.8888889 C100.88642,15.5259259 99.5432099,14.2024691 98.2395062,12.9382716 L91.8395062,7.05185185 L85.4197531,12.9777778 C84.017284,14.2419753 82.6938272,15.5654321 81.4691358,16.9283951 C76.7887557,9.26149881 69.7461399,3.32102469 61.4,0 L57.9234568,5.07654321 C66.1406704,8.03388658 72.9820744,13.9120097 77.1432099,21.5901235 C71.3430572,28.820098 66.533541,36.7916718 62.8419753,45.2938272 L71.4938272,49.6592593 C76.1170756,38.5023778 83.0511516,28.4513337 91.8395062,20.1679012 C100.543852,28.4582862 107.408314,38.4857857 111.987654,49.6 L116.116049,47.5061728 L120.639506,45.2345679 C116.940235,36.7363899 112.131313,28.7658011 106.338272,21.5308642 C110.505877,13.8787528 117.338287,8.02340597 125.538272,5.07654321 Z" id="Path" fill="#4C5AA5"></path>
                        <path d="M98.2395062,153.797531 C115.108642,138.37037 125.716049,114.449383 129.37037,92.0691358 L130.437037,85.1160494 L107.641975,73.5012346 L96.9950617,79.0123457 L119.82963,90.5283951 C116.353086,111.861728 106.279012,133.274074 91.8395062,146.666667 C77.3012346,133.274074 67.2074074,111.861728 63.7308642,90.5481481 L91.8395062,76.3654321 L91.8395062,76.3654321 L102.525926,71.1111111 L102.525926,71.1111111 L107.523457,68.5234568 L107.523457,68.5234568 L166.22963,38.8938272 C173.959613,48.8633317 174.607591,62.6096811 167.849688,73.2621181 C161.091786,83.9145551 148.379471,89.1851396 136.066667,86.4395062 L135.177778,93.1358025 L134.74321,96.2567901 C150.748988,99.5298441 167.130187,92.695021 176.063206,79.0166082 C184.996225,65.3381955 184.668693,47.5913299 175.237037,34.2518519 C173.266254,31.5342271 170.993258,29.0491729 168.461728,26.8444444 L158.466667,31.8419753 L96.817284,62.9728395 L96.817284,63.0716049 L67.1876543,78.3209877 L53.0839506,85.6493827 L54.1506173,92.0691358 C57.7259259,114.449383 68.3530864,138.37037 85.3012346,153.797531 L91.7209877,159.723457 L98.2395062,153.797531 Z M86.7432099,62.9333333 L25.0148148,31.8419753 L15.1382716,26.8444444 C12.562026,29.026968 10.2603996,31.5143165 8.28395062,34.2518519 C-1.1703175,47.5877453 -1.50926089,65.3483037 7.42930281,79.0352069 C16.3678665,92.72211 32.7661914,99.5519899 48.7777778,96.2567901 L48.382716,93.1358025 L47.4938272,86.4395062 C35.1328295,89.2961767 22.3145745,84.0427646 15.5136945,73.3328224 C8.71281461,62.6228802 9.40950164,48.7873959 17.2518519,38.8148148 L76.037037,68.4246914 L86.7432099,62.9333333 Z" id="Shape" fill="#4C5AA5"></path>
                        <path d="M52.491358,62.5901235 C50.2012357,65.2195255 47.2163163,67.1501385 43.8790123,68.1604938 C41.2068989,68.9192792 38.3387822,68.5177429 35.9777778,67.054321 C33.3118077,65.690934 31.4083162,63.1916934 30.8024691,60.2592593 C30.5688537,57.5376808 31.0882016,54.8042708 32.3037037,52.3580247 L23.3160494,47.8148148 C21.2110285,52.0301844 20.347843,56.7571522 20.8271605,61.4444444 C21.7469102,67.440781 25.3947965,72.6718501 30.7037037,75.6074074 C33.8487959,77.5730802 37.4837571,78.6135964 41.1925926,78.6098765 C42.947889,78.6358291 44.6996009,78.4434062 46.4074074,78.037037 C52.5357552,76.2214414 57.9127054,72.4728202 61.7358025,67.3506173 L52.491358,62.5901235 Z" id="Path" fill="#4C59A8" fill-rule="nonzero"></path>
                        <path d="M151.25679,52.3580247 C152.42684,54.7559814 152.944621,57.4198289 152.758025,60.0814815 C152.197693,63.0840236 150.279686,65.6583822 147.562963,67.054321 C145.207165,68.5320816 142.332773,68.9344965 139.661728,68.1604938 C136.325563,67.1283792 133.34763,65.1773194 131.069136,62.5308642 L121.804938,67.2123457 C125.58932,72.3949926 130.965849,76.196719 137.11358,78.037037 C138.835476,78.4886717 140.60753,78.7209635 142.387654,78.7283951 C152.383047,78.568638 160.88276,71.3905519 162.71358,61.562963 C163.209566,56.8835401 162.352621,52.1600559 160.244444,47.9530864 L151.25679,52.3580247 Z" id="Path" fill="#4C59A8" fill-rule="nonzero"></path>
                    </g>
                </g>
            </g>
        </g>
    </g>
</svg>